<?xml version="1.0" encoding="UTF-8"?>
<svg version="1.1" xmlns="http://www.w3.org/2000/svg" width="512" height="512">
<path d="M0 0 C31.68 0 63.36 0 96 0 C96 5.28 96 10.56 96 16 C106.56 16 117.12 16 128 16 C128 21.28 128 26.56 128 32 C133.28 32 138.56 32 144 32 C144 37.28 144 42.56 144 48 C149.28 48 154.56 48 160 48 C160 53.28 160 58.56 160 64 C165.28 64 170.56 64 176 64 C176 74.56 176 85.12 176 96 C181.28 96 186.56 96 192 96 C192 127.68 192 159.36 192 192 C186.72 192 181.44 192 176 192 C176 202.56 176 213.12 176 224 C170.72 224 165.44 224 160 224 C160 229.28 160 234.56 160 240 C154.72 240 149.44 240 144 240 C144 245.28 144 250.56 144 256 C138.72 256 133.44 256 128 256 C128 261.28 128 266.56 128 272 C117.44 272 106.88 272 96 272 C96 277.28 96 282.56 96 288 C64.32 288 32.64 288 0 288 C0 282.72 0 277.44 0 272 C-10.56 272 -21.12 272 -32 272 C-32 266.72 -32 261.44 -32 256 C-37.28 256 -42.56 256 -48 256 C-48 250.72 -48 245.44 -48 240 C-53.28 240 -58.56 240 -64 240 C-64 234.72 -64 229.44 -64 224 C-69.28 224 -74.56 224 -80 224 C-80 213.44 -80 202.88 -80 192 C-85.28 192 -90.56 192 -96 192 C-96 160.32 -96 128.64 -96 96 C-90.72 96 -85.44 96 -80 96 C-80 85.44 -80 74.88 -80 64 C-74.72 64 -69.44 64 -64 64 C-64 58.72 -64 53.44 -64 48 C-58.72 48 -53.44 48 -48 48 C-48 42.72 -48 37.44 -48 32 C-42.72 32 -37.44 32 -32 32 C-32 26.72 -32 21.44 -32 16 C-21.44 16 -10.88 16 0 16 C0 10.72 0 5.44 0 0 Z M-48 80 C-48 122.24 -48 164.48 -48 208 C15.36 208 78.72 208 144 208 C144 202.72 144 197.44 144 192 C85.92 192 27.84 192 -32 192 C-32 155.04 -32 118.08 -32 80 C-37.28 80 -42.56 80 -48 80 Z M80 96 C80 101.28 80 106.56 80 112 C90.56 112 101.12 112 112 112 C112 122.56 112 133.12 112 144 C117.28 144 122.56 144 128 144 C128 128.16 128 112.32 128 96 C112.16 96 96.32 96 80 96 Z M32 112 C32 117.28 32 122.56 32 128 C37.28 128 42.56 128 48 128 C48 122.72 48 117.44 48 112 C42.72 112 37.44 112 32 112 Z M16 128 C16 133.28 16 138.56 16 144 C21.28 144 26.56 144 32 144 C32 138.72 32 133.44 32 128 C26.72 128 21.44 128 16 128 Z M48 128 C48 133.28 48 138.56 48 144 C53.28 144 58.56 144 64 144 C64 138.72 64 133.44 64 128 C58.72 128 53.44 128 48 128 Z M80 128 C80 133.28 80 138.56 80 144 C85.28 144 90.56 144 96 144 C96 138.72 96 133.44 96 128 C90.72 128 85.44 128 80 128 Z M0 144 C0 149.28 0 154.56 0 160 C5.28 160 10.56 160 16 160 C16 154.72 16 149.44 16 144 C10.72 144 5.44 144 0 144 Z M64 144 C64 149.28 64 154.56 64 160 C69.28 160 74.56 160 80 160 C80 154.72 80 149.44 80 144 C74.72 144 69.44 144 64 144 Z M-16 160 C-16 165.28 -16 170.56 -16 176 C-10.72 176 -5.44 176 0 176 C0 170.72 0 165.44 0 160 C-5.28 160 -10.56 160 -16 160 Z " fill="currentColor" transform="translate(192,96)"/>
<path d="M0 0 C10.56 0 21.12 0 32 0 C32 5.28 32 10.56 32 16 C37.28 16 42.56 16 48 16 C48 21.28 48 26.56 48 32 C53.28 32 58.56 32 64 32 C64 37.28 64 42.56 64 48 C69.28 48 74.56 48 80 48 C80 53.28 80 58.56 80 64 C85.28 64 90.56 64 96 64 C96 74.56 96 85.12 96 96 C90.72 96 85.44 96 80 96 C80 101.28 80 106.56 80 112 C69.44 112 58.88 112 48 112 C48 106.72 48 101.44 48 96 C42.72 96 37.44 96 32 96 C32 90.72 32 85.44 32 80 C26.72 80 21.44 80 16 80 C16 74.72 16 69.44 16 64 C10.72 64 5.44 64 0 64 C0 58.72 0 53.44 0 48 C-5.28 48 -10.56 48 -16 48 C-16 37.44 -16 26.88 -16 16 C-10.72 16 -5.44 16 0 16 C0 10.72 0 5.44 0 0 Z " fill="currentColor" transform="translate(368,352)"/>
<path d="M0 0 C5.28 0 10.56 0 16 0 C16 5.28 16 10.56 16 16 C10.72 16 5.44 16 0 16 C0 10.72 0 5.44 0 0 Z " fill="currentColor" transform="translate(336,352)"/>
<path d="M0 0 C5.28 0 10.56 0 16 0 C16 5.28 16 10.56 16 16 C10.72 16 5.44 16 0 16 C0 10.72 0 5.44 0 0 Z " fill="currentColor" transform="translate(352,336)"/>
</svg>
