<?xml version="1.0" encoding="UTF-8"?>
<svg version="1.1" xmlns="http://www.w3.org/2000/svg" width="512" height="512">
<path d="M0 0 C15.84 0 31.68 0 48 0 C48 95.04 48 190.08 48 288 C32.16 288 16.32 288 0 288 C0 192.96 0 97.92 0 0 Z " fill="currentColor" transform="translate(448,160)"/>
<path d="M0 0 C5.28096327 3.51732082 8.60449484 8.21280739 11.3125 13.875 C13.15093977 23.06719885 11.9437324 30.35400447 6.875 38.1875 C1.41127739 44.08767383 -5.22367524 46.31782107 -13.125 46.625 C-19.57788414 46.40006286 -23.89215002 44.76648012 -29.0625 41 C-30.0525 40.34 -31.0425 39.68 -32.0625 39 C-33.42007174 40.3298662 -34.77333496 41.66413071 -36.125 43 C-37.25615234 44.11375 -37.25615234 44.11375 -38.41015625 45.25 C-41.12037406 48.06000491 -43.67284561 50.96886308 -46.23071289 53.91650391 C-49.15902413 57.24719938 -52.20407664 60.46465172 -55.25 63.6875 C-56.57592292 65.09597575 -57.90143881 66.50483478 -59.2265625 67.9140625 C-59.87657227 68.60532227 -60.52658203 69.29658203 -61.19628906 70.00878906 C-63.85497657 72.84555716 -66.49231108 75.70161797 -69.125 78.5625 C-73.41830767 83.2264321 -77.73363413 87.86905163 -82.0625 92.5 C-86.90000828 97.67545401 -91.71799744 102.86803977 -96.5168457 108.0793457 C-99.8054044 111.64727092 -103.11182672 115.19791028 -106.4284668 118.73974609 C-108.21688824 120.65209381 -109.9993543 122.56985425 -111.78125 124.48828125 C-113.77902441 126.63692925 -115.79612203 128.75319902 -117.84375 130.85546875 C-122.1780761 135.39384592 -124.72161193 138.83274738 -126.33984375 144.8984375 C-128.10890632 150.0430627 -132.1157677 153.63784697 -136.6875 156.375 C-143.61156446 159.70880882 -150.454877 160.01010456 -157.8125 157.75 C-164.80812918 155.11449387 -168.84322891 150.67142562 -172.0625 144 C-172.0625 143.01 -172.0625 142.02 -172.0625 141 C-172.73631242 140.88488382 -173.41012484 140.76976765 -174.10435581 140.6511631 C-180.62063205 139.50679959 -187.01783936 138.1112002 -193.42749023 136.47802734 C-194.39802841 136.23389603 -195.36856659 135.98976471 -196.36851501 135.73823547 C-198.45369424 135.21327844 -200.53846676 134.68670371 -202.62286186 134.15864182 C-205.92143643 133.32318683 -209.22117497 132.49247953 -212.52125549 131.66299438 C-220.70643272 129.60473131 -228.88986308 127.5395642 -237.07281494 125.47247314 C-244.01185527 123.71963863 -250.95179117 121.97044758 -257.89311409 120.22667313 C-261.1446443 119.40824134 -264.39475948 118.58434586 -267.6448822 117.76034546 C-269.63093841 117.26099889 -271.6170644 116.76192971 -273.60327148 116.26318359 C-274.50668274 116.03255722 -275.41009399 115.80193085 -276.34088135 115.5643158 C-277.17189865 115.35685226 -278.00291595 115.14938873 -278.8591156 114.93563843 C-279.57857581 114.75387747 -280.29803602 114.57211651 -281.03929806 114.38484764 C-283.37417704 113.87542233 -283.37417704 113.87542233 -287.0625 114 C-288.79158763 115.61578729 -288.79158763 115.61578729 -290.3125 117.75 C-294.66991104 122.99933313 -299.27161902 125.68685336 -306 126.875 C-316.58891417 127.72793808 -323.33290845 122.46805379 -331.0625 116 C-345.4874857 123.399771 -359.88587251 130.82537944 -374.08789062 138.6472168 C-380.57436599 142.21178633 -387.11556085 145.65834192 -393.6875 149.0625 C-404.24492767 154.53175023 -414.67554794 160.21433841 -425.0625 166 C-424.77955078 166.56775146 -424.49660156 167.13550293 -424.20507812 167.72045898 C-420.50547258 175.50409745 -419.50204439 182.93372881 -421.6875 191.4296875 C-424.32607825 197.48428224 -429.5461621 202.23003126 -435.390625 205.171875 C-441.86464965 207.17844404 -450.23527577 207.2761327 -456.5 204.5 C-462.32485779 200.98003218 -467.04466582 195.51037066 -469.0625 189 C-469.87225549 181.1190076 -470.15091331 173.43662538 -465.0625 167 C-461.09374902 162.35841408 -457.0175321 159.80672597 -451.265625 157.80859375 C-443.21155921 154.80388351 -435.80073983 150.83261094 -428.25 146.75 C-426.75642919 145.94984194 -425.26244254 145.15045966 -423.76806641 144.35180664 C-420.69846322 142.71021008 -417.63090544 141.06488676 -414.56494141 139.41650391 C-408.356664 136.08092903 -402.12939799 132.78127413 -395.90283203 129.48001099 C-392.62543792 127.74151626 -389.34991031 125.99951239 -386.07421875 124.2578125 C-381.22848846 121.68174555 -376.3817727 119.10754618 -371.53393555 116.53544617 C-368.63600931 114.99790094 -365.73832128 113.45990706 -362.84063721 111.92190552 C-361.47238545 111.19583691 -360.1040223 110.46997818 -358.73553467 109.74435425 C-356.82728753 108.73249339 -354.91944393 107.71987579 -353.01171875 106.70703125 C-352.41560791 106.39102463 -351.81949707 106.07501801 -351.20532227 105.74943542 C-346.48459209 103.24083069 -341.80763104 100.65745005 -337.14770508 98.0378418 C-335.0625 97 -335.0625 97 -333.0625 97 C-332.876875 96.01 -332.69125 95.02 -332.5 94 C-330.81334241 88.22554033 -326.93474433 83.96435101 -322.0234375 80.60546875 C-315.18579064 77.08718864 -307.60921227 76.55477219 -300.28515625 78.8828125 C-294.78596522 81.38018948 -290.11549586 84.682605 -287.0625 90 C-286.7028749 91.66119194 -286.36671249 93.32777285 -286.0625 95 C-285.02715118 95.22330994 -283.99180237 95.44661987 -282.92507935 95.67669678 C-270.32225622 98.42161316 -257.81317698 101.49708592 -245.3046875 104.640625 C-243.17812206 105.17320161 -241.05150362 105.70556667 -238.92483521 106.23773193 C-233.39089106 107.62310572 -227.85766011 109.01130668 -222.32458496 110.40014648 C-216.65302521 111.82319759 -210.98077881 113.24350631 -205.30859375 114.6640625 C-194.22589793 117.44006118 -183.14395542 120.21905427 -172.0625 123 C-171.44979248 122.30277832 -170.83708496 121.60555664 -170.20581055 120.88720703 C-169.39926025 119.97825684 -168.59270996 119.06930664 -167.76171875 118.1328125 C-166.96338623 117.22934082 -166.16505371 116.32586914 -165.3425293 115.39501953 C-160.48957296 110.29731082 -155.89459466 109.81455938 -149.125 109.5625 C-140.51037643 109.75454575 -135.47379874 112.39011361 -129.0625 118 C-128.81886719 117.42765625 -128.57523437 116.8553125 -128.32421875 116.265625 C-126.83732702 113.59566462 -125.08166092 111.86170993 -122.875 109.75 C-119.34943088 106.36644155 -116.13074089 102.81666377 -112.93432617 99.12792969 C-109.81694462 95.58402756 -106.56138882 92.1729647 -103.3125 88.75 C-97.72533329 82.83886504 -92.18244569 76.89449954 -86.69921875 70.88671875 C-82.34256252 66.11698697 -77.9538558 61.37688008 -73.56982422 56.63232422 C-72.08839866 55.02804639 -70.60841008 53.42245634 -69.12890625 51.81640625 C-64.31768741 46.59551769 -59.49493374 41.38641573 -54.64135742 36.20483398 C-52.2915012 33.69311341 -49.95030853 31.17338951 -47.60888672 28.65380859 C-46.25188616 27.20254212 -44.879129 25.76604215 -43.50390625 24.33203125 C-39.76452563 20.34564568 -37.41734087 17.11140404 -35.7421875 11.91015625 C-33.81319832 6.48903148 -30.61836486 2.97359103 -25.6875 0.0625 C-17.77273816 -3.49855129 -7.86564091 -3.90624735 0 0 Z M-18.4375 16.625 C-20.54956506 19.71186432 -20.67445145 21.3282913 -20.0625 25 C-18.5625 27.5 -18.5625 27.5 -16.0625 29 C-12.3907913 29.61195145 -10.77436432 29.48706506 -7.6875 27.375 C-5.57543494 24.28813568 -5.45054855 22.6717087 -6.0625 19 C-7.5625 16.5 -7.5625 16.5 -10.0625 15 C-13.7342087 14.38804855 -15.35063568 14.51293494 -18.4375 16.625 Z M-314.4375 96.625 C-316.54956506 99.71186432 -316.67445145 101.3282913 -316.0625 105 C-314.5625 107.5 -314.5625 107.5 -312.0625 109 C-308.3907913 109.61195145 -306.77436432 109.48706506 -303.6875 107.375 C-301.57543494 104.28813568 -301.45054855 102.6717087 -302.0625 99 C-303.5625 96.5 -303.5625 96.5 -306.0625 95 C-309.7342087 94.38804855 -311.35063568 94.51293494 -314.4375 96.625 Z M-154.4375 128.625 C-156.54956506 131.71186432 -156.67445145 133.3282913 -156.0625 137 C-154.5625 139.5 -154.5625 139.5 -152.0625 141 C-148.3907913 141.61195145 -146.77436432 141.48706506 -143.6875 139.375 C-141.57543494 136.28813568 -141.45054855 134.6717087 -142.0625 131 C-143.5625 128.5 -143.5625 128.5 -146.0625 127 C-149.7342087 126.38804855 -151.35063568 126.51293494 -154.4375 128.625 Z M-450.4375 176.625 C-452.54956506 179.71186432 -452.67445145 181.3282913 -452.0625 185 C-450.5625 187.5 -450.5625 187.5 -448.0625 189 C-444.3907913 189.61195145 -442.77436432 189.48706506 -439.6875 187.375 C-437.57543494 184.28813568 -437.45054855 182.6717087 -438.0625 179 C-439.5625 176.5 -439.5625 176.5 -442.0625 175 C-445.7342087 174.38804855 -447.35063568 174.51293494 -450.4375 176.625 Z " fill="currentColor" transform="translate(485.0625,66)"/>
<path d="M0 0 C15.84 0 31.68 0 48 0 C48 68.64 48 137.28 48 208 C32.16 208 16.32 208 0 208 C0 139.36 0 70.72 0 0 Z " fill="currentColor" transform="translate(152,240)"/>
<path d="M0 0 C15.84 0 31.68 0 48 0 C48 58.08 48 116.16 48 176 C32.16 176 16.32 176 0 176 C0 117.92 0 59.84 0 0 Z " fill="currentColor" transform="translate(312,272)"/>
<path d="M0 0 C15.84 0 31.68 0 48 0 C48 42.24 48 84.48 48 128 C32.16 128 16.32 128 0 128 C0 85.76 0 43.52 0 0 Z " fill="currentColor" transform="translate(16,320)"/>
</svg>
