<?xml version="1.0" standalone="no"?>
<!DOCTYPE svg PUBLIC "-//W3C//DTD SVG 20010904//EN"
 "http://www.w3.org/TR/2001/REC-SVG-20010904/DTD/svg10.dtd">
<svg version="1.0" xmlns="http://www.w3.org/2000/svg"
 width="512.000000pt" height="512.000000pt" viewBox="0 0 512.000000 512.000000"
 preserveAspectRatio="xMidYMid meet">

<g transform="translate(0.000000,512.000000) scale(0.100000,-0.100000)"
fill="currentColor" stroke="none">
<path d="M1280 5040 l0 -80 -400 0 -400 0 0 -80 0 -80 -80 0 -80 0 0 -80 0
-80 -80 0 -80 0 0 -80 0 -80 -80 0 -80 0 0 -1920 0 -1920 80 0 80 0 0 -80 0
-80 80 0 80 0 0 -80 0 -80 80 0 80 0 0 -80 0 -80 400 0 400 0 0 -80 0 -80 960
0 960 0 0 80 0 80 320 0 320 0 0 -80 0 -80 640 0 640 0 0 960 0 960 -80 0 -80
0 0 80 0 80 -80 0 -80 0 0 160 0 160 -160 0 -160 0 0 1040 0 1040 -80 0 -80 0
0 80 0 80 -80 0 -80 0 0 80 0 80 -80 0 -80 0 0 80 0 80 -400 0 -400 0 0 80 0
80 -960 0 -960 0 0 -80z m1920 -160 l0 -80 400 0 400 0 0 -80 0 -80 80 0 80 0
0 -80 0 -80 80 0 80 0 0 -80 0 -80 -160 0 -160 0 0 -80 0 -80 160 0 160 0 0
-480 0 -480 -80 0 -80 0 0 -80 0 -80 80 0 80 0 0 -320 0 -320 -80 0 -80 0 0
-160 0 -160 -80 0 -80 0 0 -80 0 -80 80 0 80 0 0 -80 0 -80 320 0 320 0 0 80
0 80 80 0 80 0 0 -160 0 -160 -480 0 -480 0 0 160 0 160 -80 0 -80 0 0 -160 0
-160 -320 0 -320 0 0 -80 0 -80 320 0 320 0 0 -560 0 -560 -320 0 -320 0 0
-80 0 -80 -960 0 -960 0 0 80 0 80 -400 0 -400 0 0 80 0 80 -80 0 -80 0 0 80
0 80 -80 0 -80 0 0 560 0 560 80 0 80 0 0 80 0 80 -80 0 -80 0 0 560 0 560 80
0 80 0 0 80 0 80 -80 0 -80 0 0 480 0 480 160 0 160 0 0 80 0 80 -160 0 -160
0 0 80 0 80 80 0 80 0 0 80 0 80 80 0 80 0 0 80 0 80 400 0 400 0 0 80 0 80
960 0 960 0 0 -80z m1440 -2720 l0 -80 -160 0 -160 0 0 80 0 80 160 0 160 0 0
-80z m-480 -800 l0 -80 320 0 320 0 0 80 0 80 80 0 80 0 0 -160 0 -160 -480 0
-480 0 0 160 0 160 80 0 80 0 0 -80z m0 -480 l0 -80 320 0 320 0 0 80 0 80 80
0 80 0 0 -160 0 -160 -480 0 -480 0 0 160 0 160 80 0 80 0 0 -80z m0 -480 l0
-80 320 0 320 0 0 80 0 80 80 0 80 0 0 -160 0 -160 -480 0 -480 0 0 160 0 160
80 0 80 0 0 -80z"/>
<path d="M480 4080 l0 -80 400 0 400 0 0 -80 0 -80 960 0 960 0 0 80 0 80 400
0 400 0 0 80 0 80 -400 0 -400 0 0 -80 0 -80 -960 0 -960 0 0 80 0 80 -400 0
-400 0 0 -80z"/>
<path d="M1760 3280 l0 -240 480 0 480 0 0 240 0 240 -480 0 -480 0 0 -240z
m800 0 l0 -80 -320 0 -320 0 0 80 0 80 320 0 320 0 0 -80z"/>
<path d="M320 2960 l0 -80 80 0 80 0 0 -80 0 -80 400 0 400 0 0 -80 0 -80 960
0 960 0 0 80 0 80 400 0 400 0 0 80 0 80 80 0 80 0 0 80 0 80 -80 0 -80 0 0
-80 0 -80 -400 0 -400 0 0 -80 0 -80 -960 0 -960 0 0 80 0 80 -400 0 -400 0 0
80 0 80 -80 0 -80 0 0 -80z"/>
<path d="M1760 2000 l0 -240 480 0 480 0 0 240 0 240 -480 0 -480 0 0 -240z
m800 0 l0 -80 -320 0 -320 0 0 80 0 80 320 0 320 0 0 -80z"/>
<path d="M320 1680 l0 -80 80 0 80 0 0 -80 0 -80 400 0 400 0 0 -80 0 -80 960
0 960 0 0 80 0 80 -960 0 -960 0 0 80 0 80 -400 0 -400 0 0 80 0 80 -80 0 -80
0 0 -80z"/>
<path d="M1760 720 l0 -240 480 0 480 0 0 240 0 240 -480 0 -480 0 0 -240z
m800 0 l0 -80 -320 0 -320 0 0 80 0 80 320 0 320 0 0 -80z"/>
</g>
</svg>
