<?xml version="1.0" encoding="UTF-8"?>
<svg version="1.1" xmlns="http://www.w3.org/2000/svg" width="512" height="512">
<path d="M0 0 C104.94 0 209.88 0 318 0 C318 10.56 318 21.12 318 32 C328.56 32 339.12 32 350 32 C350 115.82 350 199.64 350 286 C339.44 286 328.88 286 318 286 C318 296.56 318 307.12 318 318 C213.06 318 108.12 318 0 318 C0 307.44 0 296.88 0 286 C-10.56 286 -21.12 286 -32 286 C-32 202.18 -32 118.36 -32 32 C-21.44 32 -10.88 32 0 32 C0 21.44 0 10.88 0 0 Z M33 33 C33 42.9 33 52.8 33 63 C43.23 63 53.46 63 64 63 C64 73.56 64 84.12 64 95 C74.56 95 85.12 95 96 95 C96 105.56 96 116.12 96 127 C106.56 127 117.12 127 128 127 C128 137.56 128 148.12 128 159 C148.46 159 168.92 159 190 159 C190 148.44 190 137.88 190 127 C200.56 127 211.12 127 222 127 C222 116.44 222 105.88 222 95 C232.56 95 243.12 95 254 95 C254 84.44 254 73.88 254 63 C264.23 63 274.46 63 285 63 C285 53.1 285 43.2 285 33 C201.84 33 118.68 33 33 33 Z M1 64 C1 136.93 1 209.86 1 285 C105.28 285 209.56 285 317 285 C317 212.07 317 139.14 317 64 C306.77 64 296.54 64 286 64 C286 74.56 286 85.12 286 96 C275.77 96 265.54 96 255 96 C255 106.56 255 117.12 255 128 C244.44 128 233.88 128 223 128 C223 138.23 223 148.46 223 159 C212.44 159 201.88 159 191 159 C191 169.56 191 180.12 191 191 C169.88 191 148.76 191 127 191 C127 180.44 127 169.88 127 159 C116.44 159 105.88 159 95 159 C95 148.77 95 138.54 95 128 C84.44 128 73.88 128 63 128 C63 117.44 63 106.88 63 96 C52.77 96 42.54 96 32 96 C32 85.44 32 74.88 32 64 C21.77 64 11.54 64 1 64 Z " fill="currentColor" transform="translate(97,97)"/>
</svg>
