<?xml version="1.0" encoding="UTF-8"?>
<svg version="1.1" xmlns="http://www.w3.org/2000/svg" width="800" height="600">
<path d="M0 0 C15.18 0 30.36 0 46 0 C46 3.96 46 7.92 46 12 C57.88 12 69.76 12 82 12 C82 15.63 82 19.26 82 23 C85.96 23 89.92 23 94 23 C94 26.96 94 30.92 94 35 C97.63 35 101.26 35 105 35 C105 38.96 105 42.92 105 47 C101.37 47 97.74 47 94 47 C94 50.96 94 54.92 94 59 C90.04 59 86.08 59 82 59 C82 62.96 82 66.92 82 71 C74.08 71 66.16 71 58 71 C58 67.04 58 63.08 58 59 C34.9 59 11.8 59 -12 59 C-12 62.63 -12 66.26 -12 70 C-15.96 70 -19.92 70 -24 70 C-24 73.96 -24 77.92 -24 82 C-27.96 82 -31.92 82 -36 82 C-36 85.96 -36 89.92 -36 94 C-39.63 94 -43.26 94 -47 94 C-47 117.1 -47 140.2 -47 164 C-43.04 164 -39.08 164 -35 164 C-35 167.63 -35 171.26 -35 175 C-31.37 175 -27.74 175 -24 175 C-24 178.96 -24 182.92 -24 187 C-20.04 187 -16.08 187 -12 187 C-12 190.96 -12 194.92 -12 199 C11.1 199 34.2 199 58 199 C58 195.04 58 191.08 58 187 C61.96 187 65.92 187 70 187 C70 183.37 70 179.74 70 176 C73.96 176 77.92 176 82 176 C82 172.04 82 168.08 82 164 C85.63 164 89.26 164 93 164 C93 160.04 93 156.08 93 152 C69.9 152 46.8 152 23 152 C23 136.49 23 120.98 23 105 C61.61 105 100.22 105 140 105 C140 128.43 140 151.86 140 176 C136.37 176 132.74 176 129 176 C129 183.59 129 191.18 129 199 C125.04 199 121.08 199 117 199 C117 202.96 117 206.92 117 211 C113.04 211 109.08 211 105 211 C105 214.96 105 218.92 105 223 C101.04 223 97.08 223 93 223 C93 226.63 93 230.26 93 234 C81.45 234 69.9 234 58 234 C58 237.96 58 241.92 58 246 C34.9 246 11.8 246 -12 246 C-12 242.04 -12 238.08 -12 234 C-23.88 234 -35.76 234 -48 234 C-48 230.37 -48 226.74 -48 223 C-51.63 223 -55.26 223 -59 223 C-59 219.04 -59 215.08 -59 211 C-62.96 211 -66.92 211 -71 211 C-71 207.04 -71 203.08 -71 199 C-74.96 199 -78.92 199 -83 199 C-83 191.41 -83 183.82 -83 176 C-86.63 176 -90.26 176 -94 176 C-94 141.02 -94 106.04 -94 70 C-88.555 69.505 -88.555 69.505 -83 69 C-82.67 65.7 -82.34 62.4 -82 59 C-78.37 59 -74.74 59 -71 59 C-71 55.04 -71 51.08 -71 47 C-67.04 47 -63.08 47 -59 47 C-59 43.04 -59 39.08 -59 35 C-55.37 35 -51.74 35 -48 35 C-48 31.04 -48 27.08 -48 23 C-44.04 23 -40.08 23 -36 23 C-36 19.37 -36 15.74 -36 12 C-24.12 12 -12.24 12 0 12 C0 8.04 0 4.08 0 0 Z " fill="#3C7DEC" transform="translate(377,177)"/>
<path d="M0 0 C15.18 0 30.36 0 46 0 C46 3.96 46 7.92 46 12 C57.88 12 69.76 12 82 12 C82 15.63 82 19.26 82 23 C85.96 23 89.92 23 94 23 C94 26.96 94 30.92 94 35 C97.63 35 101.26 35 105 35 C105 38.96 105 42.92 105 47 C101.37 47 97.74 47 94 47 C94 50.96 94 54.92 94 59 C90.04 59 86.08 59 82 59 C82 62.96 82 66.92 82 71 C74.08 71 66.16 71 58 71 C58 67.04 58 63.08 58 59 C34.9 59 11.8 59 -12 59 C-12 62.63 -12 66.26 -12 70 C-15.96 70 -19.92 70 -24 70 C-24 73.96 -24 77.92 -24 82 C-27.96 82 -31.92 82 -36 82 C-36 85.96 -36 89.92 -36 94 C-39.63 94 -43.26 94 -47 94 C-47 113.14 -47 132.28 -47 152 C-50.96 152 -54.92 152 -59 152 C-59 155.96 -59 159.92 -59 164 C-62.63 164 -66.26 164 -70 164 C-70 167.96 -70 171.92 -70 176 C-73.96 176 -77.92 176 -82 176 C-82 183.59 -82 191.18 -82 199 C-82.33 199 -82.66 199 -83 199 C-83 191.41 -83 183.82 -83 176 C-86.63 176 -90.26 176 -94 176 C-94 141.02 -94 106.04 -94 70 C-88.555 69.505 -88.555 69.505 -83 69 C-82.67 65.7 -82.34 62.4 -82 59 C-78.37 59 -74.74 59 -71 59 C-71 55.04 -71 51.08 -71 47 C-67.04 47 -63.08 47 -59 47 C-59 43.04 -59 39.08 -59 35 C-55.37 35 -51.74 35 -48 35 C-48 31.04 -48 27.08 -48 23 C-44.04 23 -40.08 23 -36 23 C-36 19.37 -36 15.74 -36 12 C-24.12 12 -12.24 12 0 12 C0 8.04 0 4.08 0 0 Z " fill="#E23F2C" transform="translate(377,177)"/>
<path d="M0 0 C3.96 0 7.92 0 12 0 C12 3.96 12 7.92 12 12 C15.96 12 19.92 12 24 12 C24 15.63 24 19.26 24 23 C27.63 23 31.26 23 35 23 C35 26.96 35 30.92 35 35 C38.96 35 42.92 35 47 35 C47 38.96 47 42.92 47 47 C70.1 47 93.2 47 117 47 C117 43.04 117 39.08 117 35 C121.29 35 125.58 35 130 35 C130 38.96 130 42.92 130 47 C133.3 47 136.6 47 140 47 C140 50.96 140 54.92 140 59 C143.96 59 147.92 59 152 59 C152 66.59 152 74.18 152 82 C140.45 82 128.9 82 117 82 C117 85.96 117 89.92 117 94 C93.9 94 70.8 94 47 94 C47 90.04 47 86.08 47 82 C35.12 82 23.24 82 11 82 C11 78.37 11 74.74 11 71 C7.37 71 3.74 71 0 71 C0 67.04 0 63.08 0 59 C-3.96 59 -7.92 59 -12 59 C-12 55.04 -12 51.08 -12 47 C-15.63 47 -19.26 47 -23 47 C-23 39.41 -23 31.82 -23 24 C-19.04 24 -15.08 24 -11 24 C-11 20.04 -11 16.08 -11 12 C-7.37 12 -3.74 12 0 12 C0 8.04 0 4.08 0 0 Z " fill="#2CA149" transform="translate(318,329)"/>
<path d="M0 0 C0 3.96 0 7.92 0 12 C3.63 12 7.26 12 11 12 C11 19.59 11 27.18 11 35 C14.96 35 18.92 35 23 35 C23 50.51 23 66.02 23 82 C19.04 82 15.08 82 11 82 C11 85.96 11 89.92 11 94 C7.37 94 3.74 94 0 94 C0 97.96 0 101.92 0 106 C-3.96 106 -7.92 106 -12 106 C-12 113.59 -12 121.18 -12 129 C-12.33 129 -12.66 129 -13 129 C-13 121.41 -13 113.82 -13 106 C-16.63 106 -20.26 106 -24 106 C-24 71.02 -24 36.04 -24 0 C-15.21329498 -0.79879137 -8.55935316 -0.8283245 0 0 Z " fill="#EFB402" transform="translate(307,247)"/>
<path d="M0 0 C0.65871597 -0.00511093 1.31743195 -0.01022186 1.99610901 -0.01548767 C4.17856881 -0.02941374 6.36071388 -0.02842466 8.54321289 -0.02612305 C10.05774555 -0.03000846 11.57227711 -0.03434281 13.08680725 -0.03910828 C16.26363657 -0.04657705 19.44035478 -0.04627459 22.6171875 -0.04101562 C26.69073572 -0.03522139 30.76382919 -0.05214727 34.83730221 -0.0753603 C37.96597458 -0.09008419 41.09453711 -0.09097118 44.22323799 -0.08785057 C45.7251634 -0.08836451 47.22709484 -0.09361584 48.72898674 -0.10366249 C50.8287405 -0.11598353 52.9276045 -0.10926233 55.02734375 -0.09765625 C56.2226622 -0.09828568 57.41798065 -0.0989151 58.64952087 -0.0995636 C61.57836914 0.2746582 61.57836914 0.2746582 64.57836914 3.2746582 C41.47836914 3.2746582 18.37836914 3.2746582 -5.42163086 3.2746582 C-5.42163086 6.9046582 -5.42163086 10.5346582 -5.42163086 14.2746582 C-9.38163086 14.2746582 -13.34163086 14.2746582 -17.42163086 14.2746582 C-17.42163086 18.2346582 -17.42163086 22.1946582 -17.42163086 26.2746582 C-21.05163086 26.2746582 -24.68163086 26.2746582 -28.42163086 26.2746582 C-28.09163086 25.6146582 -27.76163086 24.9546582 -27.42163086 24.2746582 C-24.78163086 24.2746582 -22.14163086 24.2746582 -19.42163086 24.2746582 C-19.43323242 23.56438477 -19.44483398 22.85411133 -19.45678711 22.12231445 C-19.47032227 20.74366211 -19.47032227 20.74366211 -19.48413086 19.3371582 C-19.49573242 18.42063477 -19.50733398 17.50411133 -19.51928711 16.55981445 C-19.42163086 14.2746582 -19.42163086 14.2746582 -18.42163086 13.2746582 C-16.5727114 13.04101939 -14.71675054 12.86162186 -12.85913086 12.7121582 C-11.8472168 12.62836914 -10.83530273 12.54458008 -9.79272461 12.45825195 C-9.01026367 12.39766602 -8.22780273 12.33708008 -7.42163086 12.2746582 C-7.51702148 11.57598633 -7.61241211 10.87731445 -7.71069336 10.1574707 C-7.82155273 9.24739258 -7.93241211 8.33731445 -8.04663086 7.3996582 C-8.2206543 6.04227539 -8.2206543 6.04227539 -8.39819336 4.6574707 C-8.40592773 3.87114258 -8.41366211 3.08481445 -8.42163086 2.2746582 C-5.62966501 -0.51730765 -3.91121882 0.01508595 0 0 Z " fill="#DC523D" transform="translate(370.421630859375,232.725341796875)"/>
<path d="M0 0 C4.29 0.33 8.58 0.66 13 1 C13 1.33 13 1.66 13 2 C9.37 2 5.74 2 2 2 C2 36.98 2 71.96 2 108 C5.63 108 9.26 108 13 108 C13 108.33 13 108.66 13 109 C8.38 109 3.76 109 -1 109 C-1.02313004 95.08347742 -1.04091848 81.16695938 -1.05181217 67.25042152 C-1.05703954 60.78901111 -1.06413457 54.32761381 -1.07543945 47.86621094 C-1.08627348 41.63521571 -1.09227794 35.40423313 -1.09487724 29.17322922 C-1.09673056 26.79129207 -1.10034939 24.40935565 -1.10573006 22.02742386 C-1.11294729 18.70137261 -1.11399065 15.37537418 -1.11352539 12.04931641 C-1.11712067 11.05597794 -1.12071594 10.06263947 -1.12442017 9.03919983 C-1.1230455 8.13613602 -1.12167084 7.2330722 -1.12025452 6.30264282 C-1.12117631 5.51543161 -1.1220981 4.72822041 -1.12304783 3.91715431 C-1 2 -1 2 0 0 Z " fill="#FEF8BD" transform="translate(281,245)"/>
<path d="M0 0 C3.63 0 7.26 0 11 0 C11 0.33 11 0.66 11 1 C7.7 1 4.4 1 1 1 C1 34.99 1 68.98 1 104 C7.93 104 14.86 104 22 104 C22 100.37 22 96.74 22 93 C26.29 93 30.58 93 35 93 C35 93.33 35 93.66 35 94 C31.37 94 27.74 94 24 94 C24 97.96 24 101.92 24 106 C20.04 106 16.08 106 12 106 C12 113.59 12 121.18 12 129 C11.67 129 11.34 129 11 129 C11 121.41 11 113.82 11 106 C7.37 106 3.74 106 0 106 C0 71.02 0 36.04 0 0 Z " fill="#C7B93D" transform="translate(283,247)"/>
<path d="M0 0 C23.1 0 46.2 0 70 0 C70 3.96 70 7.92 70 12 C66.37 12 62.74 12 59 12 C59 15.96 59 19.92 59 24 C55.04 24 51.08 24 47 24 C47 27.63 47 31.26 47 35 C43.04 35 39.08 35 35 35 C35 34.67 35 34.34 35 34 C38.3 34 41.6 34 45 34 C44.979375 32.9275 44.95875 31.855 44.9375 30.75 C45 27 45 27 46 23 C49.96 23 53.92 23 58 23 C58 19.04 58 15.08 58 11 C61.63 11 65.26 11 69 11 C68.505 7.04 68.505 7.04 68 3 C34.34 2.505 34.34 2.505 0 2 C0 1.34 0 0.68 0 0 Z " fill="#C1DDFB" transform="translate(400,329)"/>
<path d="M0 0 C0.99 0.495 0.99 0.495 2 1 C2 4.63 2 8.26 2 12 C-21.1 12 -44.2 12 -68 12 C-68 8.37 -68 4.74 -68 1 C-67.67 1 -67.34 1 -67 1 C-66.67 3.97 -66.34 6.94 -66 10 C-44.22 10 -22.44 10 0 10 C0 6.7 0 3.4 0 0 Z " fill="#3D9755" transform="translate(433,411)"/>
<path d="M0 0 C0.33 0 0.66 0 1 0 C1 23.1 1 46.2 1 70 C-2.63 70 -6.26 70 -10 70 C-10 69.34 -10 68.68 -10 68 C-7.03 68 -4.06 68 -1 68 C-1.00222061 67.22183426 -1.00444122 66.44366852 -1.00672913 65.641922 C-1.02678548 58.30012394 -1.0420014 50.95833921 -1.05181217 43.61652088 C-1.05702557 39.84223573 -1.06409517 36.06797327 -1.07543945 32.29370117 C-1.0863232 28.6497494 -1.09228847 25.00581942 -1.09487724 21.36185265 C-1.0967216 19.97322942 -1.10032316 18.58460735 -1.10573006 17.19599342 C-1.11301321 15.24761752 -1.11340868 13.29921959 -1.11352539 11.35083008 C-1.115746 10.2427449 -1.11796661 9.13465973 -1.12025452 7.99299622 C-1.00853882 5.21252142 -0.63378418 2.70416282 0 0 Z " fill="#477BD3" transform="translate(516,283)"/>
<path d="M0 0 C15.18 0 30.36 0 46 0 C46 3.63 46 7.26 46 11 C45.67 11 45.34 11 45 11 C44.505 7.04 44.505 7.04 44 3 C30.14 3 16.28 3 2 3 C2 5.31 2 7.62 2 10 C1.34 10.66 0.68 11.32 0 12 C0 8.04 0 4.08 0 0 Z " fill="#CA4936" transform="translate(377,177)"/>
<path d="M0 0 C0.66 0 1.32 0 2 0 C2 3.63 2 7.26 2 11 C23.78 11 45.56 11 68 11 C67.505 7.04 67.505 7.04 67 3 C67.33 2.01 67.66 1.02 68 0 C68.66 0 69.32 0 70 0 C70 3.96 70 7.92 70 12 C46.9 12 23.8 12 0 12 C0 8.04 0 4.08 0 0 Z " fill="#E9FEF1" transform="translate(365,364)"/>
<path d="M0 0 C0.33 0 0.66 0 1 0 C1 15.51 1 31.02 1 47 C-2.96 47 -6.92 47 -11 47 C-11 46.34 -11 45.68 -11 45 C-7.7 45 -4.4 45 -1 45 C-1.00785522 43.06181396 -1.00785522 43.06181396 -1.01586914 41.08447266 C-1.03393367 36.30241587 -1.04543736 31.52036211 -1.05493164 26.73828125 C-1.05996852 24.66633599 -1.06679825 22.5943943 -1.07543945 20.52246094 C-1.08753321 17.54881918 -1.09323467 14.57522431 -1.09765625 11.6015625 C-1.10281754 10.67131256 -1.10797882 9.74106262 -1.11329651 8.78262329 C-1.11337204 7.92188202 -1.11344757 7.06114075 -1.11352539 6.17431641 C-1.115746 5.41486725 -1.11796661 4.65541809 -1.12025452 3.87295532 C-1 2 -1 2 0 0 Z " fill="#E3BF2C" transform="translate(329,282)"/>
<path d="M0 0 C11.88 0 23.76 0 36 0 C36 0.66 36 1.32 36 2 C19.665 2.495 19.665 2.495 3 3 C2.67 5.64 2.34 8.28 2 11 C1.34 11 0.68 11 0 11 C0 7.37 0 3.74 0 0 Z " fill="#CE4D3B" transform="translate(341,189)"/>
<path d="M0 0 C0.99 0 1.98 0 3 0 C3 3.3 3 6.6 3 10 C3.70125 9.79375 4.4025 9.5875 5.125 9.375 C8.60186072 8.92149643 10.77398123 9.72459723 14 11 C14 14.96 14 18.92 14 23 C13.34 23 12.68 23 12 23 C12 19.37 12 15.74 12 12 C8.04 12 4.08 12 0 12 C0 8.04 0 4.08 0 0 Z " fill="#3B89BD" transform="translate(458,376)"/>
<path d="M0 0 C0.66 0 1.32 0 2 0 C2 3.63 2 7.26 2 11 C-1.96 11 -5.92 11 -10 11 C-10 14.96 -10 18.92 -10 23 C-13.63 23 -17.26 23 -21 23 C-20.67 22.34 -20.34 21.68 -20 21 C-17.36 21 -14.72 21 -12 21 C-12.01160156 20.28972656 -12.02320313 19.57945312 -12.03515625 18.84765625 C-12.04869141 17.46900391 -12.04869141 17.46900391 -12.0625 16.0625 C-12.07410156 15.14597656 -12.08570313 14.22945312 -12.09765625 13.28515625 C-12 11 -12 11 -11 10 C-9.15108054 9.76636119 -7.29511969 9.58696365 -5.4375 9.4375 C-4.42558594 9.35371094 -3.41367187 9.26992187 -2.37109375 9.18359375 C-1.58863281 9.12300781 -0.80617188 9.06242188 0 9 C0 6.03 0 3.06 0 0 Z " fill="#CA4836" transform="translate(363,236)"/>
<path d="M0 0 C1.97909398 -0.02686553 3.95828971 -0.04633375 5.9375 -0.0625 C7.03964844 -0.07410156 8.14179688 -0.08570313 9.27734375 -0.09765625 C12 0 12 0 13 1 C13.33 3.97 13.66 6.94 14 10 C29.84 10.495 29.84 10.495 46 11 C46 11.33 46 11.66 46 12 C34.45 12 22.9 12 11 12 C11 8.37 11 4.74 11 1 C7.37 1 3.74 1 0 1 C0 0.67 0 0.34 0 0 Z " fill="#51A266" transform="translate(318,399)"/>
<path d="M0 0 C11.22 0 22.44 0 34 0 C34 0.33 34 0.66 34 1 C32.65252686 1.029729 32.65252686 1.029729 31.27783203 1.06005859 C27.94909922 1.13809261 24.62082744 1.22478114 21.29248047 1.31738281 C19.8511626 1.35569674 18.40974832 1.39054543 16.96826172 1.421875 C14.89776114 1.46747446 12.82792567 1.52547444 10.7578125 1.5859375 C9.5114502 1.6173584 8.26508789 1.6487793 6.98095703 1.68115234 C3.88458224 1.69682309 3.88458224 1.69682309 2 4 C1.59952556 6.32275177 1.2602896 8.65739357 1 11 C0.67 11 0.34 11 0 11 C0 7.37 0 3.74 0 0 Z " fill="#F1FFF3" transform="translate(436,412)"/>
<path d="M0 0 C0.33 0 0.66 0 1 0 C1 3.63 1 7.26 1 11 C4.63 11 8.26 11 12 11 C12 14.96 12 18.92 12 23 C11.67 23 11.34 23 11 23 C11 20.03 11 17.06 11 14 C8.36 14 5.72 14 3 14 C3 13.34 3 12.68 3 12 C2.01 12 1.02 12 0 12 C0 8.04 0 4.08 0 0 Z " fill="#5FB573" transform="translate(341,341)"/>
<path d="M0 0 C3.63 0 7.26 0 11 0 C11 3.96 11 7.92 11 12 C10.34 11.67 9.68 11.34 9 11 C9 8.36 9 5.72 9 3 C6.69 3 4.38 3 2 3 C2 2.34 2 1.68 2 1 C1.34 0.67 0.68 0.34 0 0 Z " fill="#41A35B" transform="translate(354,364)"/>
<path d="M0 0 C3.96 0 7.92 0 12 0 C12 0.66 12 1.32 12 2 C8.7 2 5.4 2 2 2 C2.04125 3.093125 2.0825 4.18625 2.125 5.3125 C2 9 2 9 0 12 C0 8.04 0 4.08 0 0 Z " fill="#FBCBC1" transform="translate(353,247)"/>
<path d="M0 0 C0.33 0 0.66 0 1 0 C1 2.97 1 5.94 1 9 C3.31 9 5.62 9 8 9 C8 9.66 8 10.32 8 11 C8.66 11.33 9.32 11.66 10 12 C6.04 12 2.08 12 -2 12 C-1.34 11.67 -0.68 11.34 0 11 C0 7.37 0 3.74 0 0 Z " fill="#4A89DF" transform="translate(472,388)"/>
<path d="M0 0 C0.33 0 0.66 0 1 0 C1 3.63 1 7.26 1 11 C-0.98 11 -2.96 11 -5 11 C-5 10.01 -5 9.02 -5 8 C-3.68 8 -2.36 8 -1 8 C-0.67 5.36 -0.34 2.72 0 0 Z " fill="#D34535" transform="translate(469,224)"/>
</svg>
