<svg xmlns="http://www.w3.org/2000/svg" viewBox="0 0 32 32" width="512" height="512" shape-rendering="crispEdges">
<!-- Pixel graduation cap — top mortarboard (diamond) -->
<path fill="currentColor" d="
M14 5 h4 v1 h-4 z
M12 6 h8 v1 h-8 z
M10 7 h12 v1 h-12 z
M8 8 h16 v1 h-16 z
M6 9 h20 v1 h-20 z
M4 10 h24 v1 h-24 z
M2 11 h28 v1 h-28 z
M4 12 h24 v1 h-24 z
M6 13 h20 v1 h-20 z
M8 14 h16 v1 h-16 z
M10 15 h12 v1 h-12 z
"/>
<!-- Cap base (under the mortarboard) -->
<path fill="currentColor" d="
M9 16 h14 v1 h-14 z
M9 17 h3 v1 h-3 z
M20 17 h3 v1 h-3 z
M9 18 h3 v1 h-3 z
M20 18 h3 v1 h-3 z
M9 19 h3 v1 h-3 z
M20 19 h3 v1 h-3 z
M10 20 h12 v1 h-12 z
M11 21 h10 v1 h-10 z
"/>
<!-- Tassel (from right edge of mortarboard) -->
<path fill="currentColor" d="
M25 11 h1 v1 h-1 z
M25 12 h1 v1 h-1 z
M25 13 h1 v1 h-1 z
M25 14 h1 v1 h-1 z
M25 15 h1 v1 h-1 z
M24 16 h2 v1 h-2 z
M24 17 h2 v1 h-2 z
M24 18 h2 v1 h-2 z
"/>
</svg>
