<?xml version="1.0" standalone="no"?>
<!DOCTYPE svg PUBLIC "-//W3C//DTD SVG 20010904//EN"
 "http://www.w3.org/TR/2001/REC-SVG-20010904/DTD/svg10.dtd">
<svg version="1.0" xmlns="http://www.w3.org/2000/svg"
 width="512.000000pt" height="512.000000pt" viewBox="0 0 512.000000 512.000000"
 preserveAspectRatio="xMidYMid meet">

<g transform="translate(0.000000,512.000000) scale(0.100000,-0.100000)"
fill="currentColor" stroke="none">
<path d="M1780 4125 l0 -155 -155 0 -155 0 0 -1410 0 -1410 155 0 155 0 0
-155 0 -155 780 0 780 0 0 155 0 155 155 0 155 0 0 785 0 785 -465 0 -465 0 0
-315 0 -315 155 0 155 0 0 -310 0 -310 -470 0 -470 0 0 1090 0 1090 470 0 470
0 0 -155 0 -155 310 0 310 0 0 315 0 315 -155 0 -155 0 0 155 0 155 -780 0
-780 0 0 -155z"/>
</g>
</svg>
