<?xml version="1.0" encoding="UTF-8"?>
<svg version="1.1" xmlns="http://www.w3.org/2000/svg" width="512" height="512">
<path d="M0 0 C31.68 0 63.36 0 96 0 C96 5.28 96 10.56 96 16 C90.72 16 85.44 16 80 16 C80 31.84 80 47.68 80 64 C85.28 64 90.56 64 96 64 C96 69.28 96 74.56 96 80 C101.28 80 106.56 80 112 80 C112 90.56 112 101.12 112 112 C117.28 112 122.56 112 128 112 C128 106.72 128 101.44 128 96 C143.84 96 159.68 96 176 96 C176 101.28 176 106.56 176 112 C165.44 112 154.88 112 144 112 C144 117.28 144 122.56 144 128 C154.56 128 165.12 128 176 128 C176 138.56 176 149.12 176 160 C181.28 160 186.56 160 192 160 C192 149.44 192 138.88 192 128 C197.28 128 202.56 128 208 128 C208 143.84 208 159.68 208 176 C202.72 176 197.44 176 192 176 C192 181.28 192 186.56 192 192 C213.12 192 234.24 192 256 192 C256 197.28 256 202.56 256 208 C129.28 208 2.56 208 -128 208 C-128 202.72 -128 197.44 -128 192 C-117.44 192 -106.88 192 -96 192 C-96 186.72 -96 181.44 -96 176 C-90.72 176 -85.44 176 -80 176 C-80 165.44 -80 154.88 -80 144 C-69.44 144 -58.88 144 -48 144 C-48 138.72 -48 133.44 -48 128 C-42.72 128 -37.44 128 -32 128 C-32 117.44 -32 106.88 -32 96 C-26.72 96 -21.44 96 -16 96 C-16 90.72 -16 85.44 -16 80 C-5.44 80 5.12 80 16 80 C16 58.88 16 37.76 16 16 C10.72 16 5.44 16 0 16 C0 10.72 0 5.44 0 0 Z M32 32 C32 37.28 32 42.56 32 48 C37.28 48 42.56 48 48 48 C48 42.72 48 37.44 48 32 C42.72 32 37.44 32 32 32 Z M32 64 C32 79.84 32 95.68 32 112 C37.28 112 42.56 112 48 112 C48 96.16 48 80.32 48 64 C42.72 64 37.44 64 32 64 Z M80 80 C80 85.28 80 90.56 80 96 C85.28 96 90.56 96 96 96 C96 90.72 96 85.44 96 80 C90.72 80 85.44 80 80 80 Z M-16 96 C-16 106.56 -16 117.12 -16 128 C-10.72 128 -5.44 128 0 128 C0 122.72 0 117.44 0 112 C5.28 112 10.56 112 16 112 C16 106.72 16 101.44 16 96 C5.44 96 -5.12 96 -16 96 Z M64 112 C64 117.28 64 122.56 64 128 C69.28 128 74.56 128 80 128 C80 122.72 80 117.44 80 112 C74.72 112 69.44 112 64 112 Z M32 144 C32 149.28 32 154.56 32 160 C37.28 160 42.56 160 48 160 C48 154.72 48 149.44 48 144 C42.72 144 37.44 144 32 144 Z M80 160 C80 165.28 80 170.56 80 176 C85.28 176 90.56 176 96 176 C96 181.28 96 186.56 96 192 C101.28 192 106.56 192 112 192 C112 181.44 112 170.88 112 160 C101.44 160 90.88 160 80 160 Z M-32 176 C-32 181.28 -32 186.56 -32 192 C-26.72 192 -21.44 192 -16 192 C-16 186.72 -16 181.44 -16 176 C-21.28 176 -26.56 176 -32 176 Z " fill="currentColor" transform="translate(208,272)"/>
<path d="M0 0 C42.24 0 84.48 0 128 0 C128 42.24 128 84.48 128 128 C85.76 128 43.52 128 0 128 C0 85.76 0 43.52 0 0 Z M48 32 C48 37.28 48 42.56 48 48 C42.72 48 37.44 48 32 48 C32 58.56 32 69.12 32 80 C37.28 80 42.56 80 48 80 C48 85.28 48 90.56 48 96 C58.56 96 69.12 96 80 96 C80 90.72 80 85.44 80 80 C85.28 80 90.56 80 96 80 C96 69.44 96 58.88 96 48 C90.72 48 85.44 48 80 48 C80 42.72 80 37.44 80 32 C69.44 32 58.88 32 48 32 Z " fill="currentColor" transform="translate(192,128)"/>
<path d="M0 0 C10.56 0 21.12 0 32 0 C32 5.28 32 10.56 32 16 C37.28 16 42.56 16 48 16 C48 21.28 48 26.56 48 32 C53.28 32 58.56 32 64 32 C64 37.28 64 42.56 64 48 C69.28 48 74.56 48 80 48 C80 58.56 80 69.12 80 80 C37.76 80 -4.48 80 -48 80 C-48 69.44 -48 58.88 -48 48 C-42.72 48 -37.44 48 -32 48 C-32 53.28 -32 58.56 -32 64 C-26.72 64 -21.44 64 -16 64 C-16 58.72 -16 53.44 -16 48 C-10.72 48 -5.44 48 0 48 C0 42.72 0 37.44 0 32 C5.28 32 10.56 32 16 32 C16 26.72 16 21.44 16 16 C10.72 16 5.44 16 0 16 C0 10.72 0 5.44 0 0 Z " fill="currentColor" transform="translate(240,32)"/>
<path d="M0 0 C5.28 0 10.56 0 16 0 C16 5.28 16 10.56 16 16 C21.28 16 26.56 16 32 16 C32 26.56 32 37.12 32 48 C37.28 48 42.56 48 48 48 C48 74.4 48 100.8 48 128 C42.72 128 37.44 128 32 128 C32 117.44 32 106.88 32 96 C26.72 96 21.44 96 16 96 C16 90.72 16 85.44 16 80 C10.72 80 5.44 80 0 80 C0 53.6 0 27.2 0 0 Z " fill="currentColor" transform="translate(336,192)"/>
<path d="M0 0 C5.28 0 10.56 0 16 0 C16 26.4 16 52.8 16 80 C10.72 80 5.44 80 0 80 C0 85.28 0 90.56 0 96 C-5.28 96 -10.56 96 -16 96 C-16 106.56 -16 117.12 -16 128 C-21.28 128 -26.56 128 -32 128 C-32 101.6 -32 75.2 -32 48 C-26.72 48 -21.44 48 -16 48 C-16 37.44 -16 26.88 -16 16 C-10.72 16 -5.44 16 0 16 C0 10.72 0 5.44 0 0 Z " fill="currentColor" transform="translate(160,192)"/>
<path d="M0 0 C5.28 0 10.56 0 16 0 C16 10.56 16 21.12 16 32 C10.72 32 5.44 32 0 32 C0 21.44 0 10.88 0 0 Z " fill="currentColor" transform="translate(96,416)"/>
<path d="M0 0 C10.56 0 21.12 0 32 0 C32 5.28 32 10.56 32 16 C21.44 16 10.88 16 0 16 C0 10.72 0 5.44 0 0 Z " fill="currentColor" transform="translate(128,384)"/>
<path d="M0 0 C5.28 0 10.56 0 16 0 C16 5.28 16 10.56 16 16 C10.72 16 5.44 16 0 16 C0 10.72 0 5.44 0 0 Z " fill="currentColor" transform="translate(48,464)"/>
<path d="M0 0 C5.28 0 10.56 0 16 0 C16 5.28 16 10.56 16 16 C10.72 16 5.44 16 0 16 C0 10.72 0 5.44 0 0 Z " fill="currentColor" transform="translate(112,400)"/>
<path d="M0 0 C5.28 0 10.56 0 16 0 C16 5.28 16 10.56 16 16 C10.72 16 5.44 16 0 16 C0 10.72 0 5.44 0 0 Z " fill="currentColor" transform="translate(384,384)"/>
<path d="M0 0 C5.28 0 10.56 0 16 0 C16 5.28 16 10.56 16 16 C10.72 16 5.44 16 0 16 C0 10.72 0 5.44 0 0 Z " fill="currentColor" transform="translate(208,64)"/>
<path d="M0 0 C5.28 0 10.56 0 16 0 C16 5.28 16 10.56 16 16 C10.72 16 5.44 16 0 16 C0 10.72 0 5.44 0 0 Z " fill="currentColor" transform="translate(224,48)"/>
</svg>
