<?xml version="1.0" encoding="UTF-8"?>
<svg version="1.1" xmlns="http://www.w3.org/2000/svg" width="512" height="512">
<path d="M0 0 C84.81 0 169.62 0 257 0 C257 17.16 257 34.32 257 52 C273.83 52 290.66 52 308 52 C308 68.83 308 85.66 308 103 C324.83 103 341.66 103 359 103 C359 187.81 359 272.62 359 360 C342.17 360 325.34 360 308 360 C308 376.83 308 393.66 308 411 C291.17 411 274.34 411 257 411 C257 427.83 257 444.66 257 462 C172.19 462 87.38 462 0 462 C0 445.17 0 428.34 0 411 C-16.83 411 -33.66 411 -51 411 C-51 394.17 -51 377.34 -51 360 C-67.83 360 -84.66 360 -102 360 C-102 275.19 -102 190.38 -102 103 C-85.17 103 -68.34 103 -51 103 C-51 86.17 -51 69.34 -51 52 C-34.17 52 -17.34 52 0 52 C0 34.84 0 17.68 0 0 Z M1 52 C1 68.83 1 85.66 1 103 C17.5 103 34 103 51 103 C51 86.17 51 69.34 51 52 C34.5 52 18 52 1 52 Z M103 52 C103 69.16 103 86.32 103 104 C86.17 104 69.34 104 52 104 C52 137.66 52 171.32 52 206 C102.49 206 152.98 206 205 206 C205 172.34 205 138.68 205 104 C188.17 104 171.34 104 154 104 C154 86.84 154 69.68 154 52 C137.17 52 120.34 52 103 52 Z M206 52 C206 68.83 206 85.66 206 103 C222.5 103 239 103 256 103 C256 86.17 256 69.34 256 52 C239.5 52 223 52 206 52 Z M-50 104 C-50 137.66 -50 171.32 -50 206 C-33.5 206 -17 206 0 206 C0 172.34 0 138.68 0 104 C-16.5 104 -33 104 -50 104 Z M257 104 C257 137.66 257 171.32 257 206 C273.5 206 290 206 307 206 C307 172.34 307 138.68 307 104 C290.5 104 274 104 257 104 Z M-50 258 C-50 291.33 -50 324.66 -50 359 C-33.5 359 -17 359 0 359 C0 325.67 0 292.34 0 258 C-16.5 258 -33 258 -50 258 Z M52 258 C52 291.33 52 324.66 52 359 C68.83 359 85.66 359 103 359 C103 375.83 103 392.66 103 410 C119.83 410 136.66 410 154 410 C154 393.17 154 376.34 154 359 C170.83 359 187.66 359 205 359 C205 325.67 205 292.34 205 258 C154.51 258 104.02 258 52 258 Z M257 258 C257 291.33 257 324.66 257 359 C273.5 359 290 359 307 359 C307 325.67 307 292.34 307 258 C290.5 258 274 258 257 258 Z M1 360 C1 376.5 1 393 1 410 C17.5 410 34 410 51 410 C51 393.5 51 377 51 360 C34.5 360 18 360 1 360 Z M206 360 C206 376.5 206 393 206 410 C222.5 410 239 410 256 410 C256 393.5 256 377 256 360 C239.5 360 223 360 206 360 Z " fill="currentColor" transform="translate(128,25)"/>
</svg>
